<svg width="50" height="51" viewBox="0 0 50 51" fill="none" xmlns="http://www.w3.org/2000/svg">
<path d="M0.1651 28.2377C1.68812 41.7603 13.8877 51.4907 27.4103 49.9677C40.9328 48.4447 50.6633 36.2451 49.1402 22.7225L0.172788 28.2377H0.1651Z" fill="#8D62A7"/>
<path d="M1.21122 26.9608C0.834312 21.1226 2.61887 15.4382 6.28796 10.8383C10.2032 5.93083 15.7876 2.84631 22.0182 2.14633C22.9027 2.04634 23.795 2.00018 24.6796 2.00018C36.2407 2.00018 45.9942 10.3999 47.8326 21.7149L1.21122 26.9685V26.9608Z" fill="white"/>
<path d="M24.6873 3.14629C35.2715 3.14629 44.2635 10.546 46.4711 20.6995L2.31887 25.6686C2.26503 20.5457 3.95727 15.6074 7.19562 11.5537C10.9186 6.89231 16.2261 3.95395 22.1566 3.28474C22.995 3.19244 23.8489 3.13859 24.6873 3.13859M24.6796 0.838684C23.7566 0.838684 22.8258 0.892514 21.8951 0.992511C8.3725 2.51553 -1.35792 14.7151 0.165104 28.2377L49.1326 22.7225C47.7172 10.1383 37.0561 0.838684 24.6796 0.838684Z" fill="#A8D9D6"/>
</svg>
