<svg width="50" height="50" viewBox="0 0 50 50" fill="none" xmlns="http://www.w3.org/2000/svg">
<path d="M43.9501 40.2681C52.5344 29.707 50.9344 14.1921 40.381 5.60783C29.8198 -2.97647 14.305 -1.37654 5.7207 9.17692L43.9501 40.2681Z" fill="#7DC056"/>
<path d="M24.82 48.214C19.4509 48.214 14.1896 46.3448 10.0205 42.9526C0.274718 35.0299 -1.45598 20.838 5.91298 10.8307L42.3117 40.4297C37.858 45.3987 31.5505 48.2217 24.8277 48.2217L24.82 48.214Z" fill="white"/>
<path d="M6.14374 12.4999L40.6117 40.5296C36.4426 44.7064 30.8044 47.0525 24.82 47.0525C19.7125 47.0525 14.7127 45.2756 10.7436 42.045C1.79775 34.7683 -0.048342 21.938 6.14374 12.4922M5.72068 9.17691C-2.86362 19.7381 -1.26368 35.2529 9.28978 43.8372C13.8588 47.5524 19.3586 49.3601 24.82 49.3601C31.9813 49.3601 39.081 46.2525 43.9501 40.2681L5.72068 9.17691Z" fill="#A8D9D6"/>
</svg>
