<svg width="50" height="49" viewBox="0 0 50 49" fill="none" xmlns="http://www.w3.org/2000/svg">
<path d="M3.43159 12.2396C-3.16817 24.1392 1.13167 39.1386 13.0312 45.7384C24.9308 52.3382 39.9303 48.0383 46.53 36.1388L3.43159 12.2396Z" fill="#00B19C"/>
<path d="M5.0238 12.3704C9.29288 5.49371 16.8465 1.26309 25 1.26309C28.9537 1.26309 32.8843 2.28613 36.3688 4.21683C47.353 10.3089 51.5452 23.97 46.0531 35.1234L5.0238 12.3704Z" fill="white"/>
<path d="M25 2.41689C28.7614 2.41689 32.4997 3.38608 35.8073 5.22448C41.0225 8.11668 44.7993 12.8704 46.4454 18.6009C47.8761 23.5854 47.5377 28.8006 45.5224 33.5081L6.66992 11.9627C10.8236 6.02446 17.6541 2.41689 25 2.41689ZM25 0.109283C16.3388 0.109283 7.93142 4.68604 3.43158 12.8011L46.53 36.7003C53.1298 24.8007 48.8299 9.80124 36.9304 3.20148C33.1459 1.10156 29.046 0.109283 25.0077 0.109283H25Z" fill="#A8D9D6"/>
</svg>
