<svg width="50" height="50" viewBox="0 0 50 50" fill="none" xmlns="http://www.w3.org/2000/svg">
<path d="M26.3519 0.385952C12.7755 -0.560167 1.00669 9.67794 0.0605741 23.2467C-0.885545 36.8231 9.35255 48.5919 22.9213 49.538L26.3519 0.378265V0.385952Z" fill="#EB70A7"/>
<path d="M24.152 48.4457L27.4211 1.64743C33.2286 2.33202 38.4976 5.11653 42.359 9.55484C46.4742 14.2854 48.5049 20.3391 48.0665 26.6004C47.2127 38.8538 36.9284 48.4534 24.6673 48.4534C24.4981 48.4534 24.3289 48.4534 24.1597 48.4534L24.152 48.4457Z" fill="white"/>
<path d="M28.4826 2.96276C33.5286 3.83196 38.0823 6.39341 41.4821 10.3087C45.3974 14.8085 47.3204 20.5621 46.905 26.5158C46.105 37.923 36.7208 46.9073 25.3827 47.2842L28.4749 2.96276M26.3519 0.385925L22.9213 49.5457C23.5059 49.5842 24.0828 49.6072 24.6597 49.6072C37.4823 49.6072 48.305 39.6768 49.2126 26.685C50.1587 13.1086 39.9206 1.33974 26.3519 0.393625V0.385925Z" fill="#A8D9D6"/>
</svg>
