<svg width="50" height="51" viewBox="0 0 50 51" fill="none" xmlns="http://www.w3.org/2000/svg">
<path d="M20.5251 1.34778C7.1256 3.70923 -1.82792 16.4857 0.533531 29.8852C2.89498 43.2847 15.6714 52.2382 29.071 49.8768L20.5251 1.34778Z" fill="#00B4ED"/>
<path d="M21.8635 2.3093C22.8481 2.18622 23.8404 2.12469 24.825 2.12469C36.2322 2.12469 45.9473 10.2936 47.9241 21.5394C50.101 33.9081 42.1243 45.7693 30.0017 48.5153L21.8635 2.3093Z" fill="white"/>
<path d="M24.825 0.963163V3.27077C35.6707 3.27077 44.9012 11.032 46.7857 21.7316C47.8242 27.6084 46.5088 33.5312 43.0859 38.4157C40.1091 42.6693 35.8477 45.6846 30.9248 47.0769L23.2174 3.32462C23.7558 3.28616 24.2942 3.26308 24.825 3.26308V0.955475M24.825 0.963163C23.4097 0.963163 21.9712 1.08624 20.5251 1.34008L29.071 49.8691C42.4705 47.5076 51.424 34.7312 49.0626 21.3317C46.955 9.37824 36.563 0.963163 24.825 0.963163Z" fill="#A8D9D6"/>
</svg>