<svg width="50" height="50" viewBox="0 0 50 50" fill="none" xmlns="http://www.w3.org/2000/svg">
<path d="M36.0545 2.74638C23.9165 -3.39955 9.08622 1.4618 2.94029 13.5998C-3.20564 25.7378 1.65572 40.5681 13.7937 46.714L36.0545 2.75406V2.74638Z" fill="#F5A545"/>
<path d="M24.901 48.214C21.5858 48.214 18.3782 47.5294 15.3552 46.1756L36.5468 4.32324C41.6312 7.20775 45.408 11.823 47.2387 17.4151C49.1925 23.3764 48.7079 29.7377 45.8772 35.3375C41.8543 43.2834 33.8161 48.2217 24.9087 48.2217L24.901 48.214Z" fill="white"/>
<path d="M37.016 5.9463C41.3235 8.70773 44.5234 12.8384 46.1464 17.7689C48.0079 23.438 47.5464 29.4916 44.8465 34.8145C41.0235 42.3681 33.3777 47.0602 24.9011 47.0602C22.155 47.0602 19.4859 46.5679 16.9475 45.5833L37.016 5.9463ZM36.0545 2.74641L13.7938 46.7064C17.3629 48.514 21.1627 49.3678 24.9011 49.3678C33.893 49.3678 42.562 44.4295 46.9003 35.8529C53.0462 23.7149 48.1848 8.88464 36.0468 2.73871L36.0545 2.74641Z" fill="#A8D9D6"/>
</svg>
