<svg width="50" height="50" viewBox="0 0 50 50" fill="none" xmlns="http://www.w3.org/2000/svg">
<path d="M38.5581 45.747C50.0346 38.4319 53.4037 23.2017 46.0886 11.7252C38.7735 0.248699 23.5433 -3.12042 12.0668 4.1947L38.5581 45.747Z" fill="#FBC600"/>
<path d="M25.3356 48.4546C17.259 48.4546 9.84385 44.3932 5.51324 37.5935C-1.24036 27.0015 1.58261 12.9944 11.7284 5.81L36.9506 45.3624C33.4045 47.3854 29.4124 48.4546 25.3356 48.4546Z" fill="white"/>
<path d="M11.4207 7.4792L35.3044 44.9394C32.2122 46.4932 28.8046 47.3008 25.3278 47.3008C17.6435 47.3008 10.5976 43.4394 6.47469 36.9704C0.27491 27.2477 2.56713 14.4943 11.413 7.4792M12.0591 4.1947C0.582588 11.5098 -2.78652 26.74 4.5286 38.2165C9.22843 45.5855 17.1897 49.6084 25.3278 49.6084C29.8584 49.6084 34.4506 48.3546 38.5504 45.7394L12.0591 4.18701V4.1947Z" fill="#A8D9D6"/>
</svg>
