<svg width="50" height="50" viewBox="0 0 50 50" fill="none" xmlns="http://www.w3.org/2000/svg">
<path d="M0.681396 27.962C2.20442 41.4845 14.404 51.215 27.9266 49.6919C41.4491 48.1689 51.1796 35.9694 49.6565 22.4468L0.68909 27.962H0.681396Z" fill="#EA5F5C"/>
<path d="M1.72751 26.6851C0.935231 14.2779 10.0503 3.27827 22.5345 1.87063C23.419 1.77063 24.3113 1.72449 25.1959 1.72449C36.757 1.72449 46.5105 10.1242 48.3489 21.4391L1.72751 26.6928V26.6851Z" fill="white"/>
<path d="M25.1959 2.8706C35.7801 2.8706 44.7721 10.2703 46.9797 20.4238L2.82748 25.3929C2.77363 20.27 4.46588 15.3317 7.70423 11.278C11.4272 6.61662 16.7347 3.67827 22.6652 3.00906C23.5037 2.91676 24.3575 2.86291 25.1959 2.86291M25.1959 0.562988C24.2729 0.562988 23.3421 0.61683 22.4114 0.716827C8.88879 2.23985 -0.841622 14.4394 0.6814 27.962L49.6489 22.4468C48.2335 9.86265 37.5724 0.562988 25.1959 0.562988Z" fill="#A8D9D6"/>
</svg>
