<?xml version="1.0" encoding="UTF-8"?>
<svg id="_레이어_1" data-name="레이어_1" xmlns="http://www.w3.org/2000/svg" version="1.1" viewBox="0 0 128.69 128.6">
  <!-- Generator: Adobe Illustrator 29.4.0, SVG Export Plug-In . SVG Version: 2.1.0 Build 152)  -->
  <defs>
  </defs>
  <path style="fill:#f8c7ad;" d="M108.52,64.88h11.68l-.06-1.96c-.98-30.32-25.51-54.06-55.84-54.06S9.42,32.6,8.44,62.92l-.06,1.96h11.68v-3.8h-7.72c.81-11.72,5.41-22.3,12.58-30.56l5.57,5.57,2.69-2.69-5.66-5.66c8.99-8.93,21.24-14.56,34.86-15.04v8.45h3.8v-8.45c13.62.48,25.87,6.1,34.86,15.04l-5.66,5.66,2.69,2.69,5.57-5.57c7.17,8.26,11.78,18.84,12.58,30.56h-7.72v3.8Z"/>
  <path style="fill: #e73129;" d="M49.75,41.76c.37.36.7.75.97,1.17.27.42.51.87.72,1.33.41.96.62,1.99.62,3.09v1.55c0,1.11-.21,2.13-.62,3.06-.39.96-.96,1.8-1.69,2.53-.71.71-1.56,1.28-2.53,1.71-1.03.41-2.06.62-3.09.62s-2.03-.21-3.06-.62c-.6-.26-1.17-.6-1.71-1.01v7.11c0,.43-.16.81-.48,1.12-.32.32-.69.48-1.12.48h-.62c-.26,0-.48-.08-.65-.25-.17-.17-.25-.38-.25-.65v-15.65c0-1.11.21-2.13.62-3.09.21-.47.44-.91.72-1.33.27-.42.6-.81.97-1.17.71-.71,1.55-1.28,2.53-1.71.96-.41,1.98-.62,3.06-.62s2.14.21,3.09.62c.97.43,1.82,1,2.53,1.71ZM48.93,48.9v-1.55c0-.66-.13-1.27-.38-1.85-.25-.58-.6-1.09-1.03-1.53-.43-.44-.94-.79-1.52-1.04-.58-.25-1.21-.38-1.88-.38s-1.27.13-1.85.38c-.58.25-1.09.6-1.52,1.04-.43.44-.77.95-1.03,1.53-.25.58-.38,1.2-.38,1.85v1.55c0,.66.13,1.27.38,1.85.25.58.6,1.09,1.03,1.52s.94.77,1.52,1.02c.58.25,1.2.38,1.85.38s1.3-.13,1.88-.38c.58-.25,1.09-.59,1.52-1.02s.77-.94,1.03-1.52c.25-.58.38-1.2.38-1.85Z"/>
  <path style="fill: #e73129;" d="M54.86,34.99v-3.01h3.12v2.42c0,.34-.12.62-.35.86s-.52.35-.86.35h-1.29c-.17,0-.31-.06-.44-.18-.12-.12-.18-.27-.18-.44ZM54.86,55.92v-16.46h3.12v15.76c0,.45-.15.83-.46,1.14-.31.31-.69.46-1.14.46h-.62c-.26,0-.48-.09-.65-.25-.17-.17-.25-.38-.25-.65Z"/>
  <path style="fill: #e73129;" d="M68.8,42.63c-.67,0-1.31.13-1.9.38-.59.25-1.11.6-1.56,1.05s-.8.97-1.05,1.56c-.25.59-.38,1.22-.38,1.9v1.26c0,.67.13,1.31.38,1.9.25.59.61,1.11,1.05,1.56s.97.8,1.56,1.05c.59.25,1.22.38,1.9.38h1.15c.45,0,.88-.08,1.28-.24.4-.16.76-.38,1.08-.66.32-.28.58-.61.77-1,.2-.38.32-.8.38-1.25.04-.26.18-.39.42-.39h1.15c.22,0,.44.05.63.15.2.1.36.24.48.41.12.17.21.36.25.58.05.22.04.44-.01.66-.32,1.14-.9,2.12-1.74,2.92-.62.64-1.33,1.12-2.13,1.46-.81.34-1.66.51-2.56.51h-1.15c-1.07,0-2.11-.22-3.12-.65-.49-.21-.94-.45-1.36-.73-.42-.28-.82-.61-1.19-.98-.38-.38-.7-.77-.98-1.19-.28-.42-.52-.88-.73-1.36-.41-.96-.62-2-.62-3.12v-1.26c0-1.12.21-2.16.62-3.12.21-.49.45-.94.73-1.36.28-.42.61-.82.98-1.19.38-.38.77-.7,1.19-.98.42-.28.88-.52,1.36-.73,1.01-.43,2.05-.65,3.12-.65h1.15c.9,0,1.75.17,2.56.5.8.34,1.52.82,2.13,1.46.66.64,1.15,1.36,1.48,2.16.33.81.49,1.66.49,2.56h-3.12c0-.49-.09-.95-.28-1.38-.19-.43-.44-.8-.76-1.12-.32-.32-.69-.57-1.12-.76-.43-.19-.89-.28-1.38-.28h-1.15Z"/>
  <path style="fill: #e73129;" d="M79.42,55.92v-23.52h3.15v22.81c0,.45-.16.83-.48,1.14-.32.31-.69.46-1.12.46h-.65c-.24,0-.46-.09-.63-.25-.18-.17-.27-.38-.27-.65ZM87.17,46.74l6.55,8.03c.17.21.26.43.28.66.02.23-.02.45-.11.66-.09.21-.24.38-.43.52-.2.14-.43.21-.69.21h-.9c-.34,0-.61-.12-.81-.37l-8.12-9.64,6.55-7.33h4.3l-6.6,7.25Z"/>
  <g>
    <path style="fill: #e73129;" d="M65.55,94.5c-.81.51-1.21,1.22-1.21,2.13v.62c0,.58.2,1.07.6,1.48s.89.6,1.48.6h1.46c.32,0,.71-.08,1.18-.24.47-.16.92-.42,1.35-.77.49-.39.85-.81,1.08-1.26.23-.45.35-1,.35-1.66v-1.66h-2.89c-1.46,0-2.59.25-3.4.76Z"/>
    <path style="fill: #e73129;" d="M75.06,68.43l-.22,1.64c-.71,5.25-5.25,9.21-10.55,9.21s-9.83-3.96-10.55-9.21l-.22-1.64H8.48l.22,2.1c2.26,22.02,17.81,40.95,38.87,47.56v4.5h33.44v-4.5c21.07-6.61,36.61-25.54,38.87-47.56l.22-2.1h-45.04ZM58.42,95.11h-10.14c-.43,0-.79-.15-1.08-.45-.29-.3-.44-.66-.44-1.1v-.93c0-.19.07-.35.2-.48s.29-.2.48-.2h7.87v-.17c0-.49-.09-.95-.28-1.38-.19-.43-.44-.8-.76-1.12-.32-.32-.69-.57-1.12-.76-.43-.19-.89-.28-1.38-.28h-1.15c-.67,0-1.31.13-1.9.38-.59.25-1.11.6-1.56,1.05-.45.45-.8.97-1.05,1.56-.25.59-.38,1.22-.38,1.9v1.26c0,.67.13,1.31.38,1.9.25.59.61,1.11,1.05,1.56.45.45.97.8,1.56,1.05.59.25,1.22.38,1.9.38h1.15c.58,0,1.12-.13,1.61-.38.5-.25.91-.6,1.25-1.05.21-.3.49-.38.84-.22l.67.37c.23.11.41.27.55.46s.23.41.27.63c.04.23.02.45-.04.69-.07.23-.19.45-.38.63-.34.34-.75.67-1.24,1.01-1.11.67-2.28,1.01-3.54,1.01h-1.15c-1.05,0-2.09-.22-3.12-.65-.92-.38-1.76-.95-2.53-1.71-.38-.38-.71-.77-1-1.19-.29-.42-.54-.88-.74-1.36-.41-.96-.62-2-.62-3.12v-1.26c0-1.12.21-2.16.62-3.12.21-.49.45-.94.74-1.36.29-.42.62-.82,1-1.19.77-.77,1.61-1.34,2.53-1.71,1.03-.43,2.07-.65,3.12-.65h1.15c.9,0,1.75.17,2.56.5.8.34,1.53.82,2.16,1.46.64.64,1.12,1.36,1.45,2.16.33.81.49,1.66.49,2.56v3.31ZM74.99,100.96c0,.43-.14.79-.44,1.07-.29.28-.64.42-1.05.42h-1.07c-.15,0-.29-.06-.41-.17-.12-.11-.18-.24-.18-.39v-.73c-.26.19-.54.35-.83.49-.29.14-.59.27-.88.38-.77.28-1.52.42-2.25.42h-1.46c-1.44,0-2.67-.51-3.68-1.52-1.01-1.01-1.52-2.24-1.52-3.68v-.62c0-.8.15-1.56.46-2.26.31-.7.75-1.33,1.33-1.87,1.37-1.25,3.34-1.88,5.93-1.88h2.89v-.31c0-.58-.2-1.07-.6-1.46-.4-.39-.88-.59-1.45-.59h-5.31v-3.15h5.31c.69,0,1.36.13,2,.39.64.26,1.2.64,1.69,1.12,1.01,1.01,1.52,2.24,1.52,3.68v10.65ZM87.66,86.49c0,.49-.17.9-.52,1.25-.35.35-.76.52-1.25.52h-2.81v8.88c0,.17.02.38.06.63.04.25.17.49.39.72.23.22.58.42,1.05.58.48.16,1.17.24,2.06.24v3.15c-1.87,0-3.36-.35-4.47-1.04-.26-.17-.52-.37-.79-.61-.26-.23-.5-.52-.7-.87-.21-.35-.38-.75-.52-1.21-.14-.46-.21-.99-.21-1.59v-8.88h-2.16v-3.15h2.16v-2.22c0-.43.2-.72.59-.87l.87-.31c.21-.08.41-.09.6-.06.2.04.37.11.53.21.16.1.29.24.38.42.09.18.14.37.14.58v2.25h3.91c.19,0,.35.07.48.2.13.13.2.29.2.48v.7Z"/>
  </g>
  <circle style="fill: #e73129;" cx="64.29" cy="69.06" r="7.16"/>
</svg>