<svg width="143" height="143" viewBox="0 0 143 143" fill="none" xmlns="http://www.w3.org/2000/svg">
<path d="M120.587 72.145H133.566L133.499 69.9655C132.41 36.2504 105.153 9.85211 71.45 9.85211C37.7474 9.85211 10.4675 36.2504 9.3785 69.9655L9.31183 72.145H22.2906V67.9195H13.7122C14.6122 54.8871 19.7238 43.1224 27.691 33.9375L33.8804 40.1312L36.8695 37.14L30.5801 30.8462C40.5698 20.9163 54.182 14.6558 69.3165 14.1221V23.5183H73.539V14.1221C88.6736 14.6558 102.286 20.9051 112.275 30.8462L105.986 37.14L108.975 40.1312L115.165 33.9375C123.132 43.1224 128.254 54.8871 129.143 67.9195H120.565V72.145H120.587Z" fill="white"/>
<path d="M55.2821 46.4361C55.6932 46.8364 56.0599 47.2701 56.3599 47.7371C56.66 48.2041 56.9267 48.7045 57.16 49.216C57.6156 50.2835 57.8489 51.4289 57.8489 52.652V54.3756C57.8489 55.6099 57.6156 56.7441 57.16 57.7782C56.7266 58.8457 56.0933 59.7798 55.2821 60.5915C54.4931 61.381 53.5486 62.0149 52.4708 62.493C51.3262 62.9489 50.1817 63.1824 49.0372 63.1824C47.8926 63.1824 46.7814 62.9489 45.6369 62.493C44.9702 62.2039 44.3368 61.8258 43.7367 61.3699V69.2761C43.7367 69.7542 43.5589 70.1768 43.2034 70.5215C42.8478 70.8773 42.4366 71.0552 41.9588 71.0552H41.2699C40.981 71.0552 40.7365 70.9663 40.5476 70.7772C40.3587 70.5882 40.2698 70.3547 40.2698 70.0544V52.652C40.2698 51.4177 40.5032 50.2835 40.9587 49.216C41.1921 48.6934 41.4477 48.2041 41.7588 47.7371C42.0588 47.2701 42.4255 46.8364 42.8367 46.4361C43.6256 45.6466 44.559 45.0128 45.648 44.5346C46.7148 44.0787 47.8482 43.8452 49.0483 43.8452C50.2484 43.8452 51.4262 44.0787 52.4819 44.5346C53.5597 45.0128 54.5042 45.6466 55.2932 46.4361H55.2821ZM54.3709 54.3756V52.652C54.3709 51.9181 54.2264 51.2398 53.9486 50.5949C53.6708 49.9499 53.2819 49.3828 52.8041 48.8936C52.3263 48.4043 51.7596 48.0151 51.1151 47.7371C50.4706 47.4591 49.7705 47.3145 49.026 47.3145C48.2815 47.3145 47.6148 47.4591 46.9703 47.7371C46.3258 48.0151 45.7591 48.4043 45.2813 48.8936C44.8035 49.3828 44.4257 49.9499 44.1368 50.5949C43.859 51.2398 43.7145 51.9292 43.7145 52.652V54.3756C43.7145 55.1095 43.859 55.7878 44.1368 56.4327C44.4146 57.0777 44.8035 57.6448 45.2813 58.1229C45.7591 58.6011 46.3258 58.9792 46.9703 59.2572C47.6148 59.5352 48.3038 59.6797 49.026 59.6797C49.7483 59.6797 50.4706 59.5352 51.1151 59.2572C51.7596 58.9792 52.3263 58.6011 52.8041 58.1229C53.2819 57.6448 53.6597 57.0777 53.9486 56.4327C54.2264 55.7878 54.3709 55.0984 54.3709 54.3756Z" fill="white"/>
<path d="M60.9603 38.908V35.561H64.4272V38.252C64.4272 38.63 64.2939 38.9414 64.0383 39.2083C63.7827 39.4751 63.4605 39.5974 63.0827 39.5974H61.6492C61.4603 39.5974 61.3048 39.5307 61.1603 39.3973C61.027 39.2639 60.9603 39.0971 60.9603 38.908ZM60.9603 62.1817V43.8785H64.4272V61.4033C64.4272 61.9037 64.2606 62.3262 63.9161 62.6709C63.5716 63.0156 63.1494 63.1824 62.6493 63.1824H61.9604C61.6715 63.1824 61.427 63.0824 61.2381 62.9044C61.0492 62.7154 60.9603 62.4819 60.9603 62.1817Z" fill="white"/>
<path d="M76.4504 47.4035C75.7059 47.4035 74.9947 47.548 74.3391 47.826C73.6835 48.104 73.1057 48.4932 72.6056 48.9936C72.1056 49.494 71.7167 50.0722 71.4389 50.7283C71.1611 51.3844 71.0166 52.0849 71.0166 52.841V54.2421C71.0166 54.9872 71.1611 55.6988 71.4389 56.3549C71.7167 57.011 72.1167 57.5892 72.6056 58.0896C73.0946 58.59 73.6835 58.9791 74.3391 59.2571C74.9947 59.5351 75.6948 59.6797 76.4504 59.6797H77.7282C78.2283 59.6797 78.7061 59.5907 79.1506 59.4128C79.5951 59.2349 79.9951 58.9903 80.3507 58.6789C80.7063 58.3676 80.9952 58.0006 81.2063 57.5669C81.4285 57.1444 81.5619 56.6774 81.6286 56.177C81.673 55.8879 81.8286 55.7433 82.0953 55.7433H83.3731C83.6176 55.7433 83.8621 55.7989 84.0732 55.9101C84.2954 56.0213 84.4732 56.177 84.6066 56.366C84.7399 56.555 84.8399 56.7663 84.8844 57.011C84.9399 57.2556 84.9288 57.5002 84.8732 57.7449C84.5177 59.0125 83.8732 60.1022 82.9398 60.9918C82.2508 61.7035 81.4619 62.2372 80.5729 62.6153C79.6728 62.9934 78.7283 63.1824 77.7282 63.1824H76.4504C75.2614 63.1824 74.1057 62.9378 72.9834 62.4596C72.4389 62.2261 71.9389 61.9592 71.4722 61.6479C71.0055 61.3365 70.561 60.9696 70.1499 60.5581C69.7276 60.1356 69.372 59.7019 69.0609 59.2349C68.7498 58.7679 68.4831 58.2564 68.2497 57.7226C67.7941 56.6551 67.5608 55.4987 67.5608 54.2533V52.8522C67.5608 51.6068 67.7941 50.4503 68.2497 49.3828C68.4831 48.8379 68.7498 48.3375 69.0609 47.8705C69.372 47.4035 69.7387 46.9587 70.1499 46.5473C70.5721 46.1247 71.0055 45.7689 71.4722 45.4575C71.9389 45.1462 72.4501 44.8793 72.9834 44.6458C74.1057 44.1676 75.2614 43.923 76.4504 43.923H77.7282C78.7283 43.923 79.6728 44.112 80.5729 44.479C81.4619 44.8571 82.2619 45.3908 82.9398 46.1025C83.6732 46.8141 84.2176 47.6148 84.5843 48.5043C84.951 49.405 85.1288 50.3502 85.1288 51.351H81.6619C81.6619 50.8061 81.5619 50.2946 81.3508 49.8165C81.1396 49.3383 80.8618 48.9269 80.5062 48.5711C80.1507 48.2152 79.7395 47.9372 79.2617 47.726C78.7839 47.5147 78.2727 47.4146 77.7282 47.4146H76.4504V47.4035Z" fill="white"/>
<path d="M88.2513 62.1816V36.028H91.7516V61.3921C91.7516 61.8925 91.5738 62.3151 91.2182 62.6598C90.8626 63.0045 90.4515 63.1713 89.9736 63.1713H89.2514C88.9847 63.1713 88.7402 63.0712 88.5513 62.8933C88.3513 62.7043 88.2513 62.4708 88.2513 62.1705V62.1816ZM96.8631 51.9737L104.141 60.9029C104.33 61.1364 104.43 61.381 104.453 61.6368C104.475 61.8925 104.43 62.1372 104.33 62.3707C104.23 62.6042 104.064 62.7932 103.852 62.9489C103.63 63.1046 103.375 63.1824 103.086 63.1824H102.086C101.708 63.1824 101.408 63.049 101.186 62.771L92.1627 52.0515L99.441 43.9008H104.219L96.8853 51.9626L96.8631 51.9737Z" fill="white"/>
<path d="M72.839 105.082C71.9389 105.649 71.4944 106.438 71.4944 107.45V108.14C71.4944 108.785 71.7167 109.329 72.1611 109.785C72.6056 110.241 73.1501 110.452 73.8057 110.452H75.4281C75.7836 110.452 76.217 110.364 76.7393 110.186C77.2615 110.008 77.7616 109.719 78.2394 109.329C78.7839 108.896 79.1839 108.429 79.4395 107.928C79.6951 107.428 79.8284 106.816 79.8284 106.082V104.237H76.617C74.9947 104.237 73.739 104.515 72.839 105.082Z" fill="white"/>
<path d="M83.4065 76.0925L83.162 77.9161C82.3731 83.754 77.3282 88.1574 71.4389 88.1574C65.5495 88.1574 60.5158 83.754 59.7157 77.9161L59.4713 76.0925H9.42294L9.66741 78.4276C12.1787 102.913 29.4578 123.963 52.8597 131.313V136.317H90.0181V131.313C113.431 123.963 130.699 102.913 133.21 78.4276L133.455 76.0925H83.4065ZM64.9161 105.76H53.6486C53.1708 105.76 52.7708 105.593 52.4485 105.26C52.1263 104.926 51.9596 104.526 51.9596 104.036V103.002C51.9596 102.791 52.0374 102.613 52.1818 102.469C52.3263 102.324 52.5041 102.246 52.7152 102.246H61.4603V102.057C61.4603 101.512 61.3603 101.001 61.1492 100.523C60.9381 100.044 60.6603 99.633 60.3047 99.2771C59.9491 98.9213 59.538 98.6433 59.0601 98.432C58.5823 98.2208 58.0712 98.1207 57.5267 98.1207H56.2488C55.5043 98.1207 54.7931 98.2653 54.1375 98.5432C53.4819 98.8212 52.9041 99.2104 52.4041 99.7108C51.904 100.211 51.5151 100.789 51.2373 101.446C50.9595 102.102 50.815 102.802 50.815 103.558V104.959C50.815 105.704 50.9595 106.416 51.2373 107.072C51.5151 107.728 51.9151 108.306 52.4041 108.807C52.9041 109.307 53.4819 109.696 54.1375 109.974C54.7931 110.252 55.4932 110.397 56.2488 110.397H57.5267C58.1712 110.397 58.7712 110.252 59.3157 109.974C59.8713 109.696 60.3269 109.307 60.7047 108.807C60.9381 108.473 61.2492 108.384 61.6381 108.562L62.3826 108.974C62.6382 109.096 62.8382 109.274 62.9938 109.485C63.1493 109.696 63.2493 109.941 63.2938 110.186C63.3382 110.441 63.316 110.686 63.2493 110.953C63.1716 111.209 63.0382 111.453 62.8271 111.653C62.4493 112.032 61.9937 112.398 61.4492 112.777C60.2158 113.522 58.9157 113.9 57.5156 113.9H56.2377C55.0709 113.9 53.9153 113.655 52.7708 113.177C51.7485 112.754 50.815 112.12 49.9594 111.275C49.5372 110.853 49.1705 110.419 48.8482 109.952C48.526 109.485 48.2482 108.974 48.0259 108.44C47.5704 107.372 47.337 106.216 47.337 104.97V103.569C47.337 102.324 47.5704 101.168 48.0259 100.1C48.2593 99.5551 48.526 99.0548 48.8482 98.5877C49.1705 98.1207 49.5372 97.6759 49.9594 97.2645C50.815 96.4083 51.7485 95.7744 52.7708 95.363C53.9153 94.8848 55.0709 94.6402 56.2377 94.6402H57.5156C58.5156 94.6402 59.4602 94.8292 60.3602 95.1962C61.2492 95.5743 62.0604 96.108 62.7604 96.8197C63.4716 97.5313 64.005 98.332 64.3717 99.2216C64.7384 100.122 64.9161 101.067 64.9161 102.068V105.749V105.76ZM83.3287 112.265C83.3287 112.743 83.1731 113.143 82.8398 113.455C82.5175 113.766 82.1286 113.922 81.673 113.922H80.484C80.3173 113.922 80.1618 113.855 80.0284 113.733C79.8951 113.611 79.8284 113.466 79.8284 113.299V112.487C79.5395 112.699 79.2284 112.877 78.9061 113.032C78.5839 113.188 78.2505 113.333 77.9283 113.455C77.0726 113.766 76.2392 113.922 75.4281 113.922H73.8057C72.2056 113.922 70.8388 113.355 69.7165 112.232C68.5942 111.109 68.0275 109.741 68.0275 108.14V107.45C68.0275 106.561 68.1942 105.715 68.5387 104.937C68.8831 104.159 69.372 103.458 70.0165 102.858C71.5389 101.468 73.7279 100.767 76.6059 100.767H79.8173V100.422C79.8173 99.7775 79.5951 99.2327 79.1506 98.799C78.7061 98.3653 78.1727 98.1429 77.5393 98.1429H71.6389V94.6402H77.5393C78.3061 94.6402 79.0506 94.7848 79.7617 95.0739C80.4729 95.363 81.0952 95.7855 81.6397 96.3193C82.762 97.4424 83.3287 98.8101 83.3287 100.411V112.254V112.265ZM97.4076 96.1747C97.4076 96.7196 97.2187 97.1755 96.8297 97.5647C96.4408 97.9539 95.9852 98.1429 95.4407 98.1429H92.3183V108.017C92.3183 108.206 92.3405 108.44 92.3849 108.718C92.4294 108.996 92.5739 109.263 92.8183 109.518C93.0739 109.763 93.4628 109.985 93.9851 110.163C94.5185 110.341 95.2852 110.43 96.2741 110.43V113.933C94.1962 113.933 92.5405 113.544 91.3071 112.777C91.0182 112.587 90.7293 112.365 90.4292 112.098C90.1403 111.842 89.8736 111.52 89.6514 111.131C89.418 110.742 89.2292 110.297 89.0736 109.785C88.918 109.274 88.8402 108.684 88.8402 108.017V98.1429H86.44V94.6402H88.8402V92.1716C88.8402 91.6935 89.0625 91.371 89.4958 91.2042L90.4626 90.8595C90.6959 90.7705 90.9182 90.7594 91.1293 90.7928C91.3515 90.8373 91.5404 90.9151 91.7182 91.0263C91.896 91.1375 92.0405 91.2932 92.1405 91.4933C92.2405 91.6935 92.2961 91.9048 92.2961 92.1383V94.6402H96.6408C96.852 94.6402 97.0298 94.718 97.1742 94.8626C97.3187 95.0072 97.3964 95.1851 97.3964 95.3964V96.1747H97.4076Z" fill="white"/>
<path d="M71.4389 84.7548C75.833 84.7548 79.3951 81.1902 79.3951 76.793C79.3951 72.3959 75.833 68.8313 71.4389 68.8313C67.0448 68.8313 63.4827 72.3959 63.4827 76.793C63.4827 81.1902 67.0448 84.7548 71.4389 84.7548Z" fill="white"/>
</svg>
