<svg width="258" height="258" viewBox="0 0 258 258" fill="none" xmlns="http://www.w3.org/2000/svg">
<path d="M128.641 255.313C59.1902 255.313 2.6922 198.807 2.6922 129.356C2.6922 59.9048 59.1902 3.4068 128.641 3.4068C198.093 3.4068 254.591 59.9124 254.591 129.356C254.591 198.8 198.085 255.305 128.641 255.305V255.313Z" fill="#EBF6F5"/>
<path d="M128.641 6.09902C161.563 6.09902 192.516 18.9216 215.8 42.1977C239.084 65.4815 251.899 96.4342 251.899 129.356C251.899 162.278 239.076 193.231 215.8 216.514C192.524 239.798 161.563 252.613 128.641 252.613C95.7196 252.613 64.7669 239.791 41.4831 216.514C18.1993 193.231 5.38442 162.278 5.38442 129.356C5.38442 96.4342 18.207 65.4815 41.4831 42.1977C64.7592 18.9139 95.7196 6.09902 128.641 6.09902ZM128.641 0.7146C57.5979 0.7146 0 58.3125 0 129.356C0 200.4 57.5979 257.998 128.641 257.998C199.685 257.998 257.283 200.4 257.283 129.356C257.283 58.3125 199.693 0.7146 128.641 0.7146Z" fill="#A8D9D6"/>
</svg>
