<svg width="248" height="177" viewBox="0 0 248 177" fill="none" xmlns="http://www.w3.org/2000/svg">
<path d="M197.462 21.3595H123.642H49.8288L15.5146 163.485H123.642H231.776L197.462 21.3595Z" fill="#EA5F5C"/>
<path d="M202.7 0.344879H44.5905C39.4927 0.344879 35.36 4.47749 35.36 9.57531V18.1365C35.36 23.2344 39.4927 27.367 44.5905 27.367H202.7C207.798 27.367 211.931 23.2344 211.931 18.1365V9.57531C211.931 4.47749 207.798 0.344879 202.7 0.344879Z" fill="#CD3D3B"/>
<path d="M123.641 77.9959C135.613 77.9959 145.318 68.2912 145.318 56.3198C145.318 44.3484 135.613 34.6436 123.641 34.6436C111.67 34.6436 101.965 44.3484 101.965 56.3198C101.965 68.2912 111.67 77.9959 123.641 77.9959Z" fill="#94171C" stroke="#CD3D3B" stroke-width="7.69203" stroke-miterlimit="10"/>
<path d="M131.988 39.6771L107.61 64.0551C106.318 65.3468 106.318 67.441 107.61 68.7327L111.842 72.9643C113.133 74.256 115.227 74.256 116.519 72.9643L140.897 48.5863C142.189 47.2947 142.189 45.2004 140.897 43.9087L136.666 39.6771C135.374 38.3854 133.28 38.3854 131.988 39.6771Z" fill="#EA5F5C"/>
<path d="M238.007 149.978H9.27639C4.17857 149.978 0.0459595 154.111 0.0459595 159.208V167.77C0.0459595 172.867 4.17857 177 9.27639 177H238.007C243.104 177 247.237 172.867 247.237 167.77V159.208C247.237 154.111 243.104 149.978 238.007 149.978Z" fill="#CD3D3B"/>
</svg>
